<svg width="60" height="60" viewBox="0 0 60 60" fill="currentColor" xmlns="http://www.w3.org/2000/svg">
<path opacity="0.5" d="M60 24H0V51C0 53.3869 0.948212 55.6761 2.63604 57.364C4.32387 59.0518 6.61305 60 9 60H51C53.3869 60 55.6761 59.0518 57.364 57.364C59.0518 55.6761 60 53.3869 60 51V24ZM15 18C14.2044 18 13.4413 17.6839 12.8787 17.1213C12.3161 16.5587 12 15.7956 12 15V3C12 2.20435 12.3161 1.44129 12.8787 0.87868C13.4413 0.31607 14.2044 0 15 0C15.7956 0 16.5587 0.31607 17.1213 0.87868C17.6839 1.44129 18 2.20435 18 3V15C18 15.7956 17.6839 16.5587 17.1213 17.1213C16.5587 17.6839 15.7956 18 15 18ZM45 18C44.2044 18 43.4413 17.6839 42.8787 17.1213C42.3161 16.5587 42 15.7956 42 15V3C42 2.20435 42.3161 1.44129 42.8787 0.87868C43.4413 0.31607 44.2044 0 45 0C45.7956 0 46.5587 0.31607 47.1213 0.87868C47.6839 1.44129 48 2.20435 48 3V15C48 15.7956 47.6839 16.5587 47.1213 17.1213C46.5587 17.6839 45.7956 18 45 18Z" fill="#E45F5F"/>
<path d="M51 6.00195H48V15.002C48 15.7976 47.6839 16.5607 47.1213 17.1233C46.5587 17.6859 45.7957 18.002 45 18.002C44.2043 18.002 43.4413 17.6859 42.8787 17.1233C42.3161 16.5607 42 15.7976 42 15.002V6.00195H18V15.002C18 15.7976 17.6839 16.5607 17.1213 17.1233C16.5587 17.6859 15.7956 18.002 15 18.002C14.2044 18.002 13.4413 17.6859 12.8787 17.1233C12.3161 16.5607 12 15.7976 12 15.002V6.00195H9C6.61305 6.00195 4.32387 6.95016 2.63604 8.63799C0.948212 10.3258 0 12.615 0 15.002V24.002H60V15.002C60 12.615 59.0518 10.3258 57.364 8.63799C55.6761 6.95016 53.3869 6.00195 51 6.00195Z" fill="#E45F5F"/>
</svg>
