<svg width="72" height="60" viewBox="0 0 72 60" fill="none" xmlns="http://www.w3.org/2000/svg">
<path fill-rule="evenodd" clip-rule="evenodd" d="M62.9635 0.515013C63.7628 0.0352747 64.7172 -0.11688 65.6265 0.0904834C66.5358 0.297846 67.3293 0.848604 67.8403 1.62716L71.4114 7.06193C71.8769 7.77191 72.0761 8.62316 71.9738 9.46543C71.8715 10.3077 71.4743 11.0868 70.8523 11.6653L70.8415 11.6797L70.791 11.7265L70.5853 11.9172L69.7737 12.6911C65.2831 17.0377 60.9284 21.522 56.716 26.1376C48.7912 34.8333 39.3802 46.2139 33.0461 57.2562C31.2786 60.3371 26.9609 60.9993 24.3998 58.3395L1.00769 34.0882C0.672466 33.7406 0.410713 33.3292 0.237993 32.8786C0.0652729 32.4279 -0.0148885 31.9473 0.00227288 31.4651C0.0194343 30.983 0.133568 30.5092 0.337891 30.0719C0.542214 29.6347 0.832554 29.2429 1.19166 28.9198L8.2616 22.5564C8.8829 21.9975 9.67956 21.6714 10.5152 21.634C11.3509 21.5966 12.1737 21.8501 12.8426 22.3513L24.7786 31.2809C43.4238 12.9358 53.9962 5.8958 62.9635 0.515013Z" fill="#E45F5F"/>
</svg>
