<svg width="151" height="150" viewBox="0 0 151 150" fill="none" xmlns="http://www.w3.org/2000/svg">
<g filter="url(#filter0_d_6177_5357)">
<rect x="10.6641" y="5" width="130" height="130" rx="65" fill="white"/>
<path d="M61.4168 67.5833V64.6667C61.4168 63.8931 61.1095 63.1513 60.5626 62.6043C60.0156 62.0573 59.2737 61.75 58.5002 61.75C57.7267 61.75 56.9848 62.0573 56.4378 62.6043C55.8909 63.1513 55.5836 63.8931 55.5836 64.6667V67.5833H52.6669C51.8934 67.5833 51.1515 67.8906 50.6046 68.4376C50.0576 68.9846 49.7503 69.7264 49.7503 70.5C49.7503 71.2735 50.0576 72.0154 50.6046 72.5624C51.1515 73.1094 51.8934 73.4167 52.6669 73.4167H55.5836V76.3333C55.5836 77.1069 55.8909 77.8487 56.4378 78.3957C56.9848 78.9427 57.7267 79.25 58.5002 79.25C59.2737 79.25 60.0156 78.9427 60.5626 78.3957C61.1095 77.8487 61.4168 77.1069 61.4168 76.3333V73.4167H64.3335C65.107 73.4167 65.8489 73.1094 66.3958 72.5624C66.9428 72.0154 67.2501 71.2735 67.2501 70.5C67.2501 69.7264 66.9428 68.9846 66.3958 68.4376C65.8489 67.8906 65.107 67.5833 64.3335 67.5833H61.4168ZM58.5002 53H93.4998C96.4189 52.9999 99.2916 53.7301 101.856 55.124C104.421 56.5179 106.597 58.5312 108.184 60.9807C109.772 63.4302 110.722 66.238 110.948 69.1484C111.173 72.0588 110.667 74.9794 109.475 77.6442C108.284 80.309 106.444 82.6333 104.125 84.4056C101.805 86.1779 99.0792 87.3418 96.1949 87.7913C93.3107 88.2408 90.3598 87.9616 87.6109 86.9792C84.8621 85.9969 82.4027 84.3425 80.4566 82.1667H71.5434C69.5973 84.3425 67.1379 85.9969 64.3891 86.9792C61.6402 87.9616 58.6893 88.2408 55.8051 87.7913C52.9208 87.3418 50.1948 86.1779 47.8752 84.4056C45.5557 82.6333 43.7163 80.309 42.5247 77.6442C41.333 74.9794 40.8268 72.0588 41.0523 69.1484C41.2777 66.238 42.2276 63.4302 43.8155 60.9807C45.4034 58.5312 47.5788 56.5179 50.1436 55.124C52.7084 53.7301 55.5811 52.9999 58.5002 53ZM93.4998 67.5833C94.2733 67.5833 95.0152 67.276 95.5622 66.7291C96.1091 66.1821 96.4164 65.4402 96.4164 64.6667C96.4164 63.8931 96.1091 63.1513 95.5622 62.6043C95.0152 62.0573 94.2733 61.75 93.4998 61.75C92.7263 61.75 91.9844 62.0573 91.4374 62.6043C90.8904 63.1513 90.5832 63.8931 90.5832 64.6667C90.5832 65.4402 90.8904 66.1821 91.4374 66.7291C91.9844 67.276 92.7263 67.5833 93.4998 67.5833ZM87.6665 73.4167C88.4401 73.4167 89.1819 73.1094 89.7289 72.5624C90.2759 72.0154 90.5832 71.2735 90.5832 70.5C90.5832 69.7264 90.2759 68.9846 89.7289 68.4376C89.1819 67.8906 88.4401 67.5833 87.6665 67.5833C86.893 67.5833 86.1511 67.8906 85.6042 68.4376C85.0572 68.9846 84.7499 69.7264 84.7499 70.5C84.7499 71.2735 85.0572 72.0154 85.6042 72.5624C86.1511 73.1094 86.893 73.4167 87.6665 73.4167ZM99.3331 73.4167C100.107 73.4167 100.848 73.1094 101.395 72.5624C101.942 72.0154 102.25 71.2735 102.25 70.5C102.25 69.7264 101.942 68.9846 101.395 68.4376C100.848 67.8906 100.107 67.5833 99.3331 67.5833C98.5595 67.5833 97.8177 67.8906 97.2707 68.4376C96.7237 68.9846 96.4164 69.7264 96.4164 70.5C96.4164 71.2735 96.7237 72.0154 97.2707 72.5624C97.8177 73.1094 98.5595 73.4167 99.3331 73.4167ZM93.4998 79.25C94.2733 79.25 95.0152 78.9427 95.5622 78.3957C96.1091 77.8487 96.4164 77.1069 96.4164 76.3333C96.4164 75.5598 96.1091 74.8179 95.5622 74.2709C95.0152 73.724 94.2733 73.4167 93.4998 73.4167C92.7263 73.4167 91.9844 73.724 91.4374 74.2709C90.8904 74.8179 90.5832 75.5598 90.5832 76.3333C90.5832 77.1069 90.8904 77.8487 91.4374 78.3957C91.9844 78.9427 92.7263 79.25 93.4998 79.25Z" fill="#E45F5F"/>
</g>
<defs>
<filter id="filter0_d_6177_5357" x="0.664062" y="0" width="150" height="150" filterUnits="userSpaceOnUse" color-interpolation-filters="sRGB">
<feFlood flood-opacity="0" result="BackgroundImageFix"/>
<feColorMatrix in="SourceAlpha" type="matrix" values="0 0 0 0 0 0 0 0 0 0 0 0 0 0 0 0 0 0 127 0" result="hardAlpha"/>
<feOffset dy="5"/>
<feGaussianBlur stdDeviation="5"/>
<feComposite in2="hardAlpha" operator="out"/>
<feColorMatrix type="matrix" values="0 0 0 0 0 0 0 0 0 0 0 0 0 0 0 0 0 0 0.2 0"/>
<feBlend mode="normal" in2="BackgroundImageFix" result="effect1_dropShadow_6177_5357"/>
<feBlend mode="normal" in="SourceGraphic" in2="effect1_dropShadow_6177_5357" result="shape"/>
</filter>
</defs>
</svg>
