<svg width="70" height="60" viewBox="0 0 70 60" fill="none" xmlns="http://www.w3.org/2000/svg">
<path fill-rule="evenodd" clip-rule="evenodd" d="M36.2999 0.395864C35.912 0.137395 35.4608 0 35 0C34.5392 0 34.088 0.137395 33.7001 0.395864L0 22.8974L2.59972 27.0977L6.11417 24.7576V57.4998C6.11417 58.1629 6.36778 58.7988 6.81921 59.2677C7.27063 59.7366 7.8829 60 8.52132 60H61.4787C62.1171 60 62.7294 59.7366 63.1808 59.2677C63.6322 58.7988 63.8858 58.1629 63.8858 57.4998V24.7576L67.4003 27.1027L70 22.8924L36.2999 0.395864ZM27.7785 34.9983C27.1401 34.9983 26.5279 35.2617 26.0764 35.7305C25.625 36.1994 25.3714 36.8354 25.3714 37.4984V54.9997H30.1857V39.9986H39.8143V54.9997H44.6286V37.4984C44.6286 36.8354 44.375 36.1994 43.9236 35.7305C43.4721 35.2617 42.8599 34.9983 42.2215 34.9983H27.7785Z" fill="#E45F5F"/>
</svg>
