<svg width="58" height="60" viewBox="0 0 58 60" fill="none" xmlns="http://www.w3.org/2000/svg">
<path fill-rule="evenodd" clip-rule="evenodd" d="M30.7091 58.3987L30.6774 58.4044L30.4727 58.5053L30.4151 58.5168L30.3747 58.5053L30.17 58.4044C30.1393 58.3948 30.1162 58.3996 30.1009 58.4188L30.0893 58.4477L30.0403 59.6815L30.0547 59.7392L30.0836 59.7766L30.3834 59.99L30.4266 60.0015L30.4612 59.99L30.761 59.7766L30.7956 59.7305L30.8071 59.6815L30.7581 58.4505C30.7504 58.4198 30.7341 58.4025 30.7091 58.3987ZM31.473 58.0729L31.4356 58.0787L30.9023 58.3468L30.8734 58.3756L30.8648 58.4073L30.9167 59.6469L30.9311 59.6815L30.9542 59.7017L31.5336 59.9698C31.5701 59.9794 31.598 59.9717 31.6172 59.9467L31.6287 59.9064L31.5307 58.1363C31.5211 58.1017 31.5019 58.0806 31.473 58.0729ZM29.4119 58.0787C29.3992 58.071 29.384 58.0685 29.3695 58.0717C29.355 58.0749 29.3423 58.0836 29.3341 58.096L29.3168 58.1363L29.2188 59.9064C29.2207 59.941 29.237 59.964 29.2678 59.9756L29.311 59.9698L29.8904 59.7017L29.9193 59.6786L29.9308 59.6469L29.9798 58.4073L29.9711 58.3727L29.9423 58.3439L29.4119 58.0787Z" fill="#999999"/>
<path fill-rule="evenodd" clip-rule="evenodd" d="M8.82005 0C6.52641 0 4.32671 0.911175 2.70487 2.53308C1.08302 4.15498 0.171875 6.35474 0.171875 8.64846V37.4767C0.171875 39.0058 0.779304 40.4723 1.86054 41.5536C2.94177 42.6348 4.40823 43.2423 5.93732 43.2423V8.64846C5.93732 7.88389 6.24104 7.15063 6.78165 6.61C7.32227 6.06936 8.0555 5.76564 8.82005 5.76564H49.1782C49.1782 4.2365 48.5708 2.76998 47.4895 1.68872C46.4083 0.607449 44.9418 0 43.4127 0H8.82005ZM8.82005 14.4141C8.82005 12.885 9.42748 11.4184 10.5087 10.3372C11.5899 9.25591 13.0564 8.64846 14.5855 8.64846H52.0609C53.59 8.64846 55.0565 9.25591 56.1377 10.3372C57.2189 11.4184 57.8264 12.885 57.8264 14.4141V47.0851C57.8264 48.6142 57.2189 50.0807 56.1377 51.162C55.0565 52.2433 53.59 52.8507 52.0609 52.8507H14.5855C13.0564 52.8507 11.5899 52.2433 10.5087 51.162C9.42748 50.0807 8.82005 48.6142 8.82005 47.0851V14.4141ZM52.0609 14.4141H14.5855V37.0385L25.6782 25.9454C26.0128 25.6107 26.4101 25.3451 26.8474 25.164C27.2846 24.9828 27.7533 24.8896 28.2265 24.8896C28.6998 24.8896 29.1685 24.9828 29.6057 25.164C30.043 25.3451 30.4403 25.6107 30.7749 25.9454L40.1178 35.2857L42.6661 32.7402C43.0007 32.4055 43.398 32.1399 43.8353 31.9588C44.2725 31.7776 44.7412 31.6844 45.2144 31.6844C45.6877 31.6844 46.1564 31.7776 46.5936 31.9588C47.0309 32.1399 47.4282 32.4055 47.7628 32.7402L52.0609 37.0385V14.4141ZM46.2955 23.0626C46.2955 24.2094 45.8399 25.3093 45.029 26.1203C44.218 26.9312 43.1182 27.3868 41.9714 27.3868C40.8246 27.3868 39.7247 26.9312 38.9138 26.1203C38.1029 25.3093 37.6473 24.2094 37.6473 23.0626C37.6473 21.9157 38.1029 20.8158 38.9138 20.0049C39.7247 19.1939 40.8246 18.7383 41.9714 18.7383C43.1182 18.7383 44.218 19.1939 45.029 20.0049C45.8399 20.8158 46.2955 21.9157 46.2955 23.0626Z" fill="#999999"/>
</svg>
