<svg width="60" height="42" viewBox="0 0 60 42" fill="none" xmlns="http://www.w3.org/2000/svg">
<path d="M6 42C4.35 42 2.938 41.413 1.764 40.239C0.59 39.065 0.002 37.652 0 36V6C0 4.35 0.588 2.938 1.764 1.764C2.94 0.589999 4.352 0.002 6 0H54C55.65 0 57.063 0.587999 58.239 1.764C59.415 2.94 60.002 4.352 60 6V36C60 37.65 59.413 39.063 58.239 40.239C57.065 41.415 55.652 42.002 54 42H6ZM18 33H42V27H18V33ZM9 24H15V18H9V24ZM18 24H24V18H18V24ZM27 24H33V18H27V24ZM36 24H42V18H36V24ZM45 24H51V18H45V24ZM9 15H15V9H9V15ZM18 15H24V9H18V15ZM27 15H33V9H27V15ZM36 15H42V9H36V15ZM45 15H51V9H45V15Z" fill="#999999"/>
</svg>
