<svg width="23" height="24" viewBox="0 0 23 24" fill="none" xmlns="http://www.w3.org/2000/svg">
<path d="M2.61364 24C1.89489 24 1.27981 23.7391 0.768409 23.2173C0.257008 22.6955 0.000871212 22.0675 0 21.3333V2.66666C0 1.93333 0.256136 1.30578 0.768409 0.783999C1.28068 0.262222 1.89576 0.000888888 2.61364 0H10.4545C10.8248 0 11.1354 0.128 11.3863 0.384C11.6372 0.64 11.7622 0.956444 11.7614 1.33333C11.7605 1.71022 11.635 2.02711 11.385 2.284C11.135 2.54089 10.8248 2.66844 10.4545 2.66666H2.61364V21.3333H10.4545C10.8248 21.3333 11.1354 21.4613 11.3863 21.7173C11.6372 21.9733 11.7622 22.2898 11.7614 22.6666C11.7605 23.0435 11.635 23.3604 11.385 23.6173C11.135 23.8742 10.8248 24.0018 10.4545 24H2.61364ZM18.5241 13.3333H9.14773C8.77746 13.3333 8.46731 13.2053 8.21727 12.9493C7.96723 12.6933 7.84178 12.3769 7.84091 12C7.84004 11.6231 7.96549 11.3067 8.21727 11.0507C8.46905 10.7947 8.7792 10.6667 9.14773 10.6667H18.5241L16.0739 8.16666C15.8343 7.92222 15.7145 7.62222 15.7145 7.26666C15.7145 6.91111 15.8343 6.59999 16.0739 6.33333C16.3134 6.06666 16.6184 5.92755 16.9886 5.916C17.3589 5.90444 17.6747 6.03244 17.9361 6.29999L22.608 11.0667C22.8693 11.3333 23 11.6444 23 12C23 12.3555 22.8693 12.6667 22.608 12.9333L17.9361 17.7C17.6747 17.9667 17.3646 18.0947 17.0056 18.084C16.6467 18.0733 16.3361 17.9342 16.0739 17.6667C15.8343 17.4 15.7202 17.0835 15.7315 16.7173C15.7428 16.3511 15.8678 16.0453 16.1065 15.8L18.5241 13.3333Z" fill="#999999"/>
</svg>
