<svg width="74" height="103" viewBox="0 0 74 103" fill="none" xmlns="http://www.w3.org/2000/svg">
<path d="M36.9745 5.11625e-08C27.232 -0.000538413 17.883 4.24927 10.9594 11.8258C4.0359 19.4022 0.0974251 29.693 0 40.4615C0 68.4576 32.5837 99.6211 33.9703 100.949C34.8074 101.741 35.8728 102.176 36.9745 102.176C38.0761 102.176 39.1415 101.741 39.9786 100.949C41.5963 99.6211 73.9489 68.4576 73.9489 40.4615C73.8515 29.693 69.913 19.4022 62.9895 11.8258C56.066 4.24927 46.717 -0.000538413 36.9745 5.11625e-08ZM36.9745 56.1965C33.7751 56.1965 30.6476 55.1479 27.9874 53.1831C25.3272 51.2183 23.2538 48.4258 22.0295 45.1585C20.8051 41.8912 20.4848 38.296 21.109 34.8275C21.7331 31.3589 23.2738 28.1729 25.5361 25.6722C27.7984 23.1716 30.6807 21.4686 33.8186 20.7787C36.9565 20.0887 40.209 20.4428 43.1649 21.7962C46.1207 23.1495 48.6471 25.4414 50.4246 28.3818C52.2021 31.3223 53.1508 34.7794 53.1508 38.3158C53.1508 43.0581 51.4465 47.6061 48.4128 50.9594C45.3792 54.3127 41.2647 56.1965 36.9745 56.1965Z" fill="#E45F5F"/>
</svg>
