<svg width="60" height="60" viewBox="0 0 60 60" fill="none" xmlns="http://www.w3.org/2000/svg">
<path d="M30 45C30.85 45 31.563 44.712 32.139 44.136C32.715 43.56 33.002 42.848 33 42V30C33 29.15 32.712 28.438 32.136 27.864C31.56 27.29 30.848 27.002 30 27C29.152 26.998 28.44 27.286 27.864 27.864C27.288 28.442 27 29.154 27 30V42C27 42.85 27.288 43.563 27.864 44.139C28.44 44.715 29.152 45.002 30 45ZM30 21C30.85 21 31.563 20.712 32.139 20.136C32.715 19.56 33.002 18.848 33 18C32.998 17.152 32.71 16.44 32.136 15.864C31.562 15.288 30.85 15 30 15C29.15 15 28.438 15.288 27.864 15.864C27.29 16.44 27.002 17.152 27 18C26.998 18.848 27.286 19.561 27.864 20.139C28.442 20.717 29.154 21.004 30 21ZM30 60C25.85 60 21.95 59.212 18.3 57.636C14.65 56.06 11.475 53.923 8.775 51.225C6.075 48.527 3.938 45.352 2.364 41.7C0.790004 38.048 0.0020038 34.148 3.79746e-06 30C-0.0019962 25.852 0.786004 21.952 2.364 18.3C3.942 14.648 6.079 11.473 8.775 8.775C11.471 6.077 14.646 3.94 18.3 2.364C21.954 0.788 25.854 0 30 0C34.146 0 38.046 0.788 41.7 2.364C45.354 3.94 48.529 6.077 51.225 8.775C53.921 11.473 56.059 14.648 57.639 18.3C59.219 21.952 60.006 25.852 60 30C59.994 34.148 59.206 38.048 57.636 41.7C56.066 45.352 53.929 48.527 51.225 51.225C48.521 53.923 45.346 56.061 41.7 57.639C38.054 59.217 34.154 60.004 30 60Z" fill="#E45F5F"/>
</svg>
