<svg width="28" height="28" viewBox="0 0 28 28" fill="none" xmlns="http://www.w3.org/2000/svg">
<path d="M18.5823 0.340184L18.7327 0.472973L27.5343 9.27231C27.8041 9.54345 27.9678 9.90223 27.9957 10.2836C28.0237 10.665 27.9141 11.0439 27.6867 11.3514C27.4594 11.659 27.1293 11.875 26.7564 11.9602C26.3835 12.0455 25.9924 11.9943 25.654 11.8161L20.5779 16.8893L18.2991 22.9641C18.239 23.1244 18.1537 23.274 18.0462 23.4072L17.9342 23.5352L15.5338 25.935C15.258 26.2103 14.8913 26.3755 14.5024 26.3996C14.1135 26.4238 13.7291 26.3052 13.4214 26.0662L13.2694 25.9334L8.7998 21.4666L2.72993 27.5333C2.44195 27.8203 2.05552 27.9868 1.64913 27.9993C1.24274 28.0117 0.846861 27.869 0.541902 27.6001C0.236944 27.3313 0.0457723 26.9565 0.00721576 26.5518C-0.0313408 26.1472 0.0856089 25.743 0.334311 25.4215L0.467135 25.2711L6.5354 19.2028L2.06742 14.7343C1.79189 14.4588 1.62637 14.0923 1.60191 13.7035C1.57746 13.3147 1.69575 12.9303 1.93459 12.6225L2.06742 12.4721L4.46784 10.0722C4.58858 9.9511 4.72798 9.85009 4.88071 9.77307L5.03754 9.70588L11.1122 7.42605L16.1867 2.35443C16.0137 2.03099 15.957 1.65792 16.0263 1.29772C16.0956 0.937516 16.2866 0.612057 16.5673 0.375856C16.848 0.139655 17.2014 0.00705606 17.5682 0.000270586C17.935 -0.00651489 18.2931 0.114525 18.5823 0.340184Z" fill="#E45F5F"/>
</svg>
