<svg width="58" height="58" viewBox="0 0 58 58" fill="none" xmlns="http://www.w3.org/2000/svg">
<g clip-path="url(#clip0_6177_2163)">
<rect width="58" height="58" rx="29" fill="#E45F5F"/>
<path d="M47.6207 46.4493C45.4963 43.9088 42.4639 42.0889 39.0233 41.2896L38.9161 41.269L36.4372 44.9973C36.4355 45.4938 36.2135 45.9694 35.8195 46.3205C35.4256 46.6715 34.8917 46.8694 34.3346 46.8709C33.1782 46.8709 32.2321 46.0278 31.1282 43.5472V43.4873C31.1282 42.8662 30.8513 42.2705 30.3584 41.8313C29.8655 41.3921 29.197 41.1454 28.5 41.1454C27.803 41.1454 27.1345 41.3921 26.6416 41.8313C26.1487 42.2705 25.8718 42.8662 25.8718 43.4873V43.5491V43.5454C24.6944 46.0278 23.7398 46.869 22.5855 46.869C22.0284 46.8675 21.4945 46.6696 21.1006 46.3186C20.7066 45.9676 20.4846 45.4919 20.4829 44.9955L18.0818 41.2597C14.6173 42.0449 11.557 43.8597 9.40662 46.4043L9.37718 46.4399C8.52701 47.683 8.05256 49.1011 8 50.5561V50.5692C8.01051 50.8502 8 51.1781 8 51.5059V55.253C8 56.2467 8.44304 57.1998 9.23165 57.9025C10.0203 58.6052 11.0899 59 12.2051 59H44.7949C45.9101 59 46.9797 58.6052 47.7683 57.9025C48.557 57.1998 49 56.2467 49 55.253V51.5059C49 51.1799 48.9895 50.8502 49 50.5692C48.9492 49.097 48.4664 47.6623 47.5997 46.4081L47.6228 46.4456L47.6207 46.4493ZM17.4594 23.9577C17.4594 29.4284 21.2861 37.4658 28.4979 37.4658C35.5835 37.4658 39.5364 29.4284 39.5364 23.9577V23.836C39.5364 22.5443 39.2508 21.2653 38.6961 20.0719C38.1414 18.8785 37.3283 17.7942 36.3033 16.8809C35.2783 15.9675 34.0614 15.243 32.7221 14.7487C31.3829 14.2544 29.9475 14 28.4979 14C27.0483 14 25.6129 14.2544 24.2737 14.7487C22.9344 15.243 21.7175 15.9675 20.6925 16.8809C19.6675 17.7942 18.8544 18.8785 18.2997 20.0719C17.745 21.2653 17.4594 22.5443 17.4594 23.836V23.9634V23.9577Z" fill="white"/>
</g>
<defs>
<clipPath id="clip0_6177_2163">
<rect width="58" height="58" rx="29" fill="white"/>
</clipPath>
</defs>
</svg>
