<svg width="66" height="75" viewBox="0 0 66 75" fill="none" xmlns="http://www.w3.org/2000/svg">
<path d="M38.7965 11.6758C38.8329 11.7564 62.4948 64.3204 57.7946 69.9561C53.0909 75.5958 45.91 75.5955 43.7096 70.1738C41.5096 64.7523 41.8181 58.6771 39.8268 57.6504C37.8349 56.6246 22.0797 56.7963 19.8581 57.6504C17.6374 58.5046 17.0607 65.6917 15.9753 70.1738C14.8897 74.6559 6.09141 76.5359 1.3942 70.1738C-3.29934 63.8167 20.8495 11.7574 20.8874 11.6758H38.7965ZM23.1022 47.1484H36.5729L30.0758 26.1416H29.6003L23.1022 47.1484Z" fill="#E45F5F"/>
<path d="M28.6943 1.61523C33.5216 1.61536 37.2956 4.04001 40.1953 7.90527C43.0636 11.7286 45.1393 17.03 46.6846 23.0498L47.1289 24.7783H11.3506L11.6367 23.1533C12.7013 17.1161 14.4554 11.7877 17.1777 7.93652C19.9396 4.02943 23.7305 1.61523 28.6943 1.61523Z" fill="white" stroke="#E45F5F" stroke-width="2.76874"/>
<path d="M45 16V30C57.25 28.6782 66 26.5032 66 22.7931C66 18.955 57.25 16.908 45 16Z" fill="#E45F5F"/>
<path d="M26.8389 16.3086C28.2413 16.3087 29.3702 16.6776 30.2754 17.3154C31.1777 17.9514 31.8412 18.8434 32.3369 19.8643L32.5303 20.2617H21.5068L21.6279 19.8975C21.9721 18.8657 22.5385 17.9634 23.3984 17.3203C24.2596 16.6763 25.3928 16.3086 26.8389 16.3086Z" fill="#E45F5F" stroke="#E45F5F" stroke-width="0.553749"/>
</svg>
