<svg width="176" height="66" viewBox="0 0 176 66" fill="none" xmlns="http://www.w3.org/2000/svg">
<path d="M14.9771 63.6003H0L20.0237 3.7995H38.4194L58.3617 63.6003H43.466L39.4776 50.7976H18.9655L14.9771 63.6003ZM22.3028 40.0599H36.1403L29.4657 18.5845H28.9774L22.3028 40.0599Z" fill="#E45F5F"/>
<path d="M59.5468 63.6003V18.7497H72.896V26.8443H73.3029C74.9309 20.9798 78.8379 18.0889 83.7218 18.0889C85.0241 18.0889 86.4893 18.3367 87.6288 18.5845V30.7264C86.3265 30.3134 83.8846 30.0656 82.1752 30.0656C77.0472 30.0656 73.3029 33.6999 73.3029 39.0687V63.6003H59.5468Z" fill="#E45F5F"/>
<path d="M115.304 20.4886V30.7308H107.246V51.2976C107.246 54.1059 108.629 54.9319 110.99 55.0145C112.129 55.0971 114.327 54.9319 115.874 54.8493V65.5044C114.571 65.6696 112.292 66 109.036 66C99.35 66 93.4894 61.9527 93.5708 52.867V30.7308H87.6288V18.6318H93.5708V9.75094H107.246V20.4886H115.304Z" fill="#E45F5F"/>
<path d="M117.023 63.6003V18.7497H130.779V63.6003H117.023ZM123.942 13.3808C120.035 13.3808 116.86 10.4073 116.86 6.69042C116.86 2.97352 120.035 0 123.942 0C127.849 0 131.105 2.97352 131.105 6.69042C131.105 10.4073 127.849 13.3808 123.942 13.3808Z" fill="#E45F5F"/>
<path d="M155.162 64.4262C141.325 64.4262 132.86 55.6709 132.86 41.3815C132.86 27.505 141.406 18.1715 154.674 18.1715C167.046 18.1715 176 26.1835 176 41.0511V44.6028H146.371V44.8506C146.371 50.6324 149.872 54.3493 155.407 54.3493C159.151 54.3493 161.918 52.6974 163.058 50.0542H175.837C174.209 58.8096 166.639 64.4262 155.162 64.4262ZM146.371 36.4256H163.221C163.139 31.6349 159.721 28.2484 155 28.2484C150.116 28.2484 146.575 31.7588 146.371 36.4256Z" fill="#E45F5F"/>
</svg>
