<svg width="94" height="94" viewBox="0 0 94 94" fill="none" xmlns="http://www.w3.org/2000/svg">
<rect width="94" height="94" rx="47" fill="white"/>
<path d="M56.8041 20.6758C56.8041 20.6758 80.5059 73.3161 75.8021 78.9561C71.0984 84.596 63.9174 84.5959 61.7172 79.1738C59.5171 73.752 59.826 67.6766 57.8344 66.6504C55.8425 65.6246 40.0869 65.7963 37.8656 66.6504C35.645 67.5046 35.0682 74.6917 33.9828 79.1738C32.8973 83.6559 24.099 85.5359 19.4017 79.1738C14.7057 72.8102 38.8959 20.6758 38.8959 20.6758H56.8041ZM41.1078 56.1504H54.5785L48.0805 35.1436H47.6049L41.1078 56.1504Z" fill="#E45F5F"/>
<path d="M46.4277 11.0254C50.9199 11.0254 54.4373 13.2348 57.1387 16.7578C59.8072 20.2381 61.7336 25.0567 63.165 30.5127L63.6201 32.248H30.2578L30.5518 30.6182C31.5384 25.144 33.1662 20.2977 35.7012 16.7891C38.2767 13.2244 41.8107 11.0255 46.4277 11.0254Z" fill="#FDF4F4" stroke="#E45F5F" stroke-width="2.76874"/>
<path d="M62.1393 24.6953V36.9976C73.1414 35.8361 81 33.9249 81 30.6647C81 27.292 73.1414 25.4932 62.1393 24.6953Z" fill="#E45F5F"/>
<path d="M44.7168 24.418C46.0163 24.418 47.0635 24.7524 47.9043 25.332C48.7427 25.91 49.3593 26.7205 49.8193 27.6475L50.0176 28.0479H39.7539L39.8789 27.6816C40.1988 26.7433 40.7257 25.9221 41.5254 25.3369C42.3258 24.7513 43.3773 24.418 44.7168 24.418Z" fill="#E45F5F" stroke="#E45F5F" stroke-width="0.553749"/>
</svg>
